<svg xmlns="http://www.w3.org/2000/svg" width="24" height="24" viewBox="0 0 24 24">
  <g id="casino" transform="translate(-26 -26)">
    <path id="Path_206478" data-name="Path 206478" d="M38,26A12,12,0,1,0,50,38,12,12,0,0,0,38,26ZM48.552,37.294H45.023a7.025,7.025,0,0,0-1.561-3.758l2.5-2.5A10.53,10.53,0,0,1,48.552,37.294Zm-9.847-9.847a10.529,10.529,0,0,1,6.255,2.594l-2.5,2.5a7.025,7.025,0,0,0-3.758-1.561Zm-1.412,0v3.529a7.025,7.025,0,0,0-3.758,1.561l-2.5-2.5A10.529,10.529,0,0,1,37.294,27.448Zm-7.253,3.592,2.5,2.5a7.026,7.026,0,0,0-1.561,3.758H27.448A10.53,10.53,0,0,1,30.041,31.039Zm-2.593,7.667h3.529a7.025,7.025,0,0,0,1.561,3.758l-2.5,2.5a10.529,10.529,0,0,1-2.594-6.255Zm9.847,9.847a10.529,10.529,0,0,1-6.255-2.594l2.5-2.5a7.025,7.025,0,0,0,3.758,1.561ZM32.353,38A5.647,5.647,0,1,1,38,43.647,5.647,5.647,0,0,1,32.353,38Zm6.353,10.552V45.023a7.025,7.025,0,0,0,3.758-1.561l2.5,2.5A10.529,10.529,0,0,1,38.706,48.552Zm7.253-3.592-2.5-2.5a7.025,7.025,0,0,0,1.561-3.758h3.529A10.529,10.529,0,0,1,45.959,44.961Z" transform="translate(0 0)" fill="#fff"/>
    <path id="Path_206479" data-name="Path 206479" d="M43.636,42.442l1.594-1.4a.706.706,0,0,0-.4-1.234l-2.109-.192-.835-1.948a.706.706,0,0,0-1.3,0l-.835,1.948-2.109.192a.706.706,0,0,0-.4,1.234l1.594,1.4-.469,2.065a.706.706,0,0,0,1.049.763l1.82-1.085,1.821,1.085a.706.706,0,0,0,1.049-.763Zm-1.247-.784c-.459.341-.094,1.119-.026,1.557-.243-.122-.844-.584-1.128-.556-.281-.029-.889.438-1.128.556l.2-.869c.172-.548-.582-.962-.895-1.276.441-.07,1.287.038,1.473-.505l.352-.822.352.822c.184.542,1.035.436,1.473.505Z" transform="translate(-3.235 -3.307)" fill="#fff"/>
  </g>
</svg>
