<svg xmlns="http://www.w3.org/2000/svg" width="24" height="24" viewBox="0 0 24 24">
  <path id="esports" d="M20.485,3.515A12,12,0,0,0,3.515,20.485,12,12,0,0,0,20.485,3.515Zm.006,11.266,2.02-1.461a10.483,10.483,0,0,1-1.254,3.837Zm-.948-1.052-3.355-1.106L15.023,9.038l2.085-2.85,3.755.006a10.5,10.5,0,0,1,1.719,5.337ZM12,14.946,9.2,12.91l1.07-3.293h3.463L14.8,12.91ZM7.813,12.619,4.453,13.708,1.419,11.5A10.5,10.5,0,0,1,3.153,6.169l3.754,0,2.07,2.862ZM2.728,17.13a10.485,10.485,0,0,1-1.243-3.84L3.5,14.756ZM19.754,4.785l-2.49,0L16.5,2.4A10.6,10.6,0,0,1,19.49,4.51c.09.09.178.182.264.275Zm-4.938-3,1.155,3.574L13.885,8.21H10.117L8.047,5.348,9.213,1.777a10.713,10.713,0,0,1,5.6.008Zm-7.285.606L6.757,4.766l-2.49,0c.08-.085.161-.17.244-.253A10.6,10.6,0,0,1,7.532,2.391ZM3.725,18.614l1.161-3.567,3.36-1.088L11.3,16.174v3.532L8.257,21.914A10.562,10.562,0,0,1,4.51,19.49,10.774,10.774,0,0,1,3.725,18.614ZM9.982,22.4,12,20.935,14.018,22.4a10.734,10.734,0,0,1-4.036,0Zm5.761-.487L12.7,19.706V16.174l3.046-2.213L19.1,15.066l1.151,3.571a10.779,10.779,0,0,1-.766.853,10.562,10.562,0,0,1-3.747,2.424Z" fill="#fff"/>
</svg>
