<svg xmlns="http://www.w3.org/2000/svg" width="23.753" height="24" viewBox="0 0 23.753 24">
  <g id="Group_123140" data-name="Group 123140" transform="translate(-0.563 -0.368)">
    <path id="Union_9" data-name="Union 9" d="M5.716,23.958A6.255,6.255,0,0,1,.079,19.053l-.006-.016v-.01A12.964,12.964,0,0,1,1.549,11.5l.058-.107.117-.026a.286.286,0,0,1,.266.084c.111.117.17.282-.111,1.327-.972,3.583-.573,5.946,1.189,7.028a4.957,4.957,0,0,0,3.546.383,6.332,6.332,0,0,0,3.414-1.883,17.045,17.045,0,0,0,3.18-5.108.646.646,0,0,1-.144-.5c.021-.33.042-.664.063-.983.016-.27.032-.536.053-.806a2.7,2.7,0,0,0-1.146-.08l-.006.006a3.036,3.036,0,0,0-.307.047,3.514,3.514,0,0,0-1.131.467.562.562,0,0,1-.743-.062l-.059-.042-.122-.314.021-.078a9.357,9.357,0,0,1,1.7-3.308l.011-.012a5.207,5.207,0,0,1,2.744-1.65,1.306,1.306,0,0,1,.191-.038h.026a.264.264,0,0,0,.059,0c.053-.012.1-.049.181-.234A10.239,10.239,0,0,1,17.511,1.78l.005-.007A9.333,9.333,0,0,1,20.282.3a6.372,6.372,0,0,1,.823-.244.594.594,0,0,1,.1-.028,1.27,1.27,0,0,1,1.439.759,11.121,11.121,0,0,1,.579,1.35,8.653,8.653,0,0,1,.446,4.236,11.42,11.42,0,0,1-.918,3.093,5.5,5.5,0,0,1,.249,5.363c-.164.372-.35.733-.531,1.083-.053.107-.106.207-.159.308a.607.607,0,0,1-.319.318l-.01.006a.512.512,0,0,1-.3.02.557.557,0,0,1-.451-.514l-.006-.006a3.339,3.339,0,0,0-1.364-2.177c-.006,0-.011,0-.021-.01s-.01-.006-.016-.01c-.223.227-.446.45-.658.672-.2.2-.4.4-.6.612a.7.7,0,0,1-.366.218.686.686,0,0,1-.308-.007,29.015,29.015,0,0,1-4.311,5.691l-.005.006a10.552,10.552,0,0,1-5.139,2.733l-.053.012c-.059.01-.122.026-.181.036A7.986,7.986,0,0,1,6.521,24,7.819,7.819,0,0,1,5.716,23.958ZM2.042,20.737A4.432,4.432,0,0,0,3.3,21.893a6.722,6.722,0,0,0,2.575.9,6.885,6.885,0,0,0,2.261-.156L8.2,22.62a9.329,9.329,0,0,0,4.555-2.415,27.566,27.566,0,0,0,3.992-5.239l-2.49-1.2c-.143.355-.3.711-.472,1.062A18.043,18.043,0,0,1,10.908,19.1a7.479,7.479,0,0,1-4.04,2.252c-.085.02-.17.042-.249.058a6.094,6.094,0,0,1-4.151-.584l-.011-.006a4.566,4.566,0,0,1-.69-.513A4.009,4.009,0,0,0,2.042,20.737ZM20.559,13a4.515,4.515,0,0,1,1.358,1.61,4.623,4.623,0,0,0,.2-3.892A17.613,17.613,0,0,1,20.559,13Zm-6.37-.561,2,.955,1.688.749.08.032c.106-.1.212-.2.313-.3L14.21,12.046C14.2,12.175,14.2,12.3,14.188,12.435ZM17.82,9.381a.555.555,0,0,1,.324.674c-.027.064-.048.127-.074.181L17.23,12.1l1.9.85a16.56,16.56,0,0,0,2.049-2.872,10.78,10.78,0,0,0,1.407-4.13,7.386,7.386,0,0,0,0-1.641,6.005,6.005,0,0,1-2.245-.53A5.9,5.9,0,0,1,18.44,2.47,8.608,8.608,0,0,0,16.1,5.12,13.884,13.884,0,0,0,14.523,9.5c-.074.383-.132.766-.186,1.136-.011.059-.021.117-.027.181.266.117.531.234.791.354.377.166.749.335,1.12.506.239-.547.536-1.216.833-1.889a.993.993,0,0,1,.1-.175.53.53,0,0,1,.26-.224l.191-.074ZM13.854,7.142a4.017,4.017,0,0,0-1.439.928,6.35,6.35,0,0,0-1.173,1.794c.09-.026.18-.048.271-.068a.393.393,0,0,1,.058-.01,4.069,4.069,0,0,1,1.757.01A16.9,16.9,0,0,1,14,7.089,1.3,1.3,0,0,0,13.854,7.142Zm7.5-6.015-.117.033c-.292.094-.595.207-.993.361l-.5.19a3.653,3.653,0,0,0-.329.16A5.25,5.25,0,0,0,22.38,3.188a4.113,4.113,0,0,0-.149-.483c-.2-.552-.366-.967-.536-1.344-.089-.2-.154-.25-.237-.25A.529.529,0,0,0,21.355,1.127Zm-3.3,7.624A2.43,2.43,0,0,1,16.8,7.359l-.1-.276.021-.006a2.453,2.453,0,0,1,1.545-2.85,3.023,3.023,0,0,1,.334-.094,2.45,2.45,0,0,1,1.359,4.693l-.042.01a1.7,1.7,0,0,1-.324.094,2.358,2.358,0,0,1-.506.055A2.4,2.4,0,0,1,18.053,8.75Zm.785-3.515a1.812,1.812,0,0,0-.207.059,1.34,1.34,0,0,0-.77,1.715l.011.016a1.324,1.324,0,0,0,1.2.85,1.438,1.438,0,0,0,.318-.026,1.352,1.352,0,0,0,.94-.76,1.334,1.334,0,0,0-1.219-1.881A1.272,1.272,0,0,0,18.839,5.236Z" transform="translate(0.562 0.368)" fill="#fff"/>
  </g>
</svg>
