<svg xmlns="http://www.w3.org/2000/svg" width="237.744" height="84.263" viewBox="0 0 237.744 84.263">
  <g id="layer1" transform="translate(-535.594 -20.809)">
    <path id="path2356" d="M633.421,99.489V51.165a16.1,16.1,0,0,1,16.1-16.1l14.268.021a16.076,16.076,0,0,1,16.044,16.076V61.448a16.1,16.1,0,0,1-16.1,16.1H643.571" fill="none" stroke="#939598" stroke-linecap="round" stroke-linejoin="round" stroke-miterlimit="10" stroke-width="2.976"/>
    <path id="path2360" d="M683.819,35.059h6.189a6.607,6.607,0,0,1,6.607,6.607v36.1" fill="none" stroke="#939598" stroke-linecap="round" stroke-linejoin="round" stroke-miterlimit="10" stroke-width="2.976"/>
    <path id="path2364" d="M695.289,29.466l-2.807-2.807a1.783,1.783,0,0,1,0-2.522l2.8-2.805a1.786,1.786,0,0,1,2.526,0l2.8,2.805a1.783,1.783,0,0,1,0,2.522l-2.807,2.807a1.783,1.783,0,0,1-2.522,0" fill="#32bcad"/>
    <path id="path2368" d="M708.489,35.027h6.138a11.906,11.906,0,0,1,8.418,3.487L737.4,52.87a4.762,4.762,0,0,0,6.735,0l14.3-14.3a11.906,11.906,0,0,1,8.418-3.487h4.99" fill="none" stroke="#939598" stroke-linecap="round" stroke-linejoin="round" stroke-miterlimit="10" stroke-width="2.976"/>
    <path id="path2372" d="M708.489,77.448h6.138a11.906,11.906,0,0,0,8.418-3.487L737.4,59.6a4.762,4.762,0,0,1,6.735,0l14.3,14.3a11.906,11.906,0,0,0,8.418,3.487h4.99" fill="none" stroke="#939598" stroke-linecap="round" stroke-linejoin="round" stroke-miterlimit="10" stroke-width="2.976"/>
    <path id="path2376" d="M596.827,86.62a11.463,11.463,0,0,1-8.156-3.377L576.894,71.466a2.238,2.238,0,0,0-3.095,0l-11.82,11.82a11.463,11.463,0,0,1-8.156,3.377H551.5l14.916,14.915a11.929,11.929,0,0,0,16.869,0L598.246,86.62Z" fill="#32bcad"/>
    <path id="path2380" d="M553.824,44.963a11.463,11.463,0,0,1,8.156,3.377L573.8,60.162a2.19,2.19,0,0,0,3.095,0l11.777-11.778a11.463,11.463,0,0,1,8.156-3.377h1.419L583.288,30.048a11.928,11.928,0,0,0-16.87,0L551.5,44.963Z" fill="#32bcad"/>
    <path id="path2384" d="M610.618,57.379l-9.039-9.039a1.722,1.722,0,0,1-.642.129h-4.11a8.123,8.123,0,0,0-5.706,2.364L579.345,62.61a5.659,5.659,0,0,1-7.994,0L559.53,50.79a8.121,8.121,0,0,0-5.706-2.364H548.77a1.713,1.713,0,0,1-.607-.122l-9.075,9.075a11.928,11.928,0,0,0,0,16.869l9.075,9.075a1.717,1.717,0,0,1,.607-.122h5.054a8.122,8.122,0,0,0,5.706-2.364l11.82-11.82a5.789,5.789,0,0,1,7.995,0l11.776,11.776a8.123,8.123,0,0,0,5.706,2.364h4.11a1.721,1.721,0,0,1,.642.129l9.039-9.039a11.929,11.929,0,0,0,0-16.869" fill="#32bcad"/>
    <path id="path2388" d="M645.691,95.381a10.448,10.448,0,0,0-2.212.338v2.945a5.116,5.116,0,0,0,1.722.288c1.477,0,2.177-.5,2.177-1.8,0-1.223-.574-1.771-1.687-1.771m-2.71,5.469V95.027h.405l.042.254a11.576,11.576,0,0,1,2.3-.371,2.289,2.289,0,0,1,1.511.438,2.222,2.222,0,0,1,.667,1.806,2.025,2.025,0,0,1-.945,1.874,3.643,3.643,0,0,1-1.713.38,6.163,6.163,0,0,1-1.772-.27v1.713Z" fill="#939598"/>
    <path id="path2392" d="M651.618,95.364c-1.477,0-2.135.465-2.135,1.764,0,1.257.65,1.823,2.135,1.823,1.468,0,2.127-.456,2.127-1.756,0-1.257-.649-1.832-2.127-1.832m1.9,3.587a3.2,3.2,0,0,1-1.9.455,3.239,3.239,0,0,1-1.907-.455,2.038,2.038,0,0,1-.76-1.789,2.075,2.075,0,0,1,.76-1.8,4.2,4.2,0,0,1,3.806,0,2.5,2.5,0,0,1,0,3.587" fill="#939598"/>
    <path id="path2396" d="M660.508,99.289l-1.646-3.536h-.034l-1.62,3.536h-.447l-1.755-4.262h.549l1.46,3.578h.034l1.586-3.578h.456l1.629,3.578h.034l1.426-3.578h.531l-1.755,4.262Z" fill="#939598"/>
    <path id="path2400" d="M665.894,95.356c-1.367,0-1.831.607-1.916,1.486h3.832c-.042-.97-.54-1.486-1.916-1.486m-.017,4.051a2.569,2.569,0,0,1-1.772-.473,2.582,2.582,0,0,1,.127-3.595,2.856,2.856,0,0,1,1.662-.43,2.985,2.985,0,0,1,1.7.414,2.162,2.162,0,0,1,.735,1.966h-4.372c.017.877.3,1.655,1.958,1.655a12.741,12.741,0,0,0,2.2-.245v.447a12.989,12.989,0,0,1-2.245.262" fill="#939598"/>
    <path id="path2404" d="M669.762,99.289V95.026h.4l.043.254a7.53,7.53,0,0,1,2.118-.371h.059v.473h-.119a6.963,6.963,0,0,0-2.008.338v3.57Z" fill="#939598"/>
    <path id="path2408" d="M675.279,95.356c-1.367,0-1.831.607-1.916,1.486h3.832c-.042-.97-.54-1.486-1.916-1.486m-.017,4.051a2.569,2.569,0,0,1-1.772-.473,2.582,2.582,0,0,1,.127-3.595,2.856,2.856,0,0,1,1.662-.43,2.985,2.985,0,0,1,1.7.414,2.162,2.162,0,0,1,.735,1.966h-4.372c.017.877.3,1.655,1.958,1.655a12.749,12.749,0,0,0,2.2-.245v.447a12.989,12.989,0,0,1-2.245.262" fill="#939598"/>
    <path id="path2412" d="M683.173,95.652a5.112,5.112,0,0,0-1.722-.288c-1.477,0-2.178.5-2.178,1.8,0,1.232.574,1.772,1.688,1.772a10.977,10.977,0,0,0,2.212-.329Zm.093,3.637-.042-.254a11.587,11.587,0,0,1-2.3.372,2.248,2.248,0,0,1-1.511-.439,2.225,2.225,0,0,1-.667-1.806,2,2,0,0,1,.945-1.865,3.567,3.567,0,0,1,1.722-.388,6.445,6.445,0,0,1,1.764.27V93.229h.5v6.059Z" fill="#939598"/>
    <path id="path2416" d="M690.972,95.381a10.448,10.448,0,0,0-2.212.338v2.937a4.962,4.962,0,0,0,1.722.3c1.477,0,2.177-.5,2.177-1.8,0-1.223-.574-1.771-1.687-1.771m1.274,3.645a3.646,3.646,0,0,1-1.713.38,6.07,6.07,0,0,1-1.907-.321l-.025.2h-.338v-6.06h.5v2.033a12.073,12.073,0,0,1,2.253-.354,2.289,2.289,0,0,1,1.511.438,2.222,2.222,0,0,1,.667,1.806,2.025,2.025,0,0,1-.945,1.874" fill="#939598"/>
    <path id="path2420" d="M693.852,100.926v-.464c.244.025.473.042.633.042a1.29,1.29,0,0,0,1.333-.878l.161-.337-2.228-4.262h.574l1.907,3.679h.034l1.814-3.679h.565l-2.4,4.786a1.738,1.738,0,0,1-1.781,1.156,5.2,5.2,0,0,1-.616-.042" fill="#939598"/>
    <path id="path2424" d="M705.509,96.858h-1.654v1.494h1.662c1.139,0,1.57-.127,1.57-.751,0-.667-.591-.743-1.578-.743m-.3-2.422h-1.35v1.519h1.359c1.123,0,1.57-.134,1.57-.768,0-.675-.565-.751-1.578-.751m2.565,4.448a4.91,4.91,0,0,1-2.684.4h-2.523V93.508h2.465a4.7,4.7,0,0,1,2.456.371,1.222,1.222,0,0,1,.591,1.148,1.263,1.263,0,0,1-.912,1.283v.033c.743.17,1.224.549,1.224,1.368a1.248,1.248,0,0,1-.616,1.173" fill="#939598"/>
    <path id="path2428" d="M713.436,97.5c-.5-.043-1-.067-1.536-.067-.869,0-1.174.177-1.174.573,0,.371.254.574.92.574a8.744,8.744,0,0,0,1.79-.254Zm.253,1.789-.034-.253a10.292,10.292,0,0,1-2.312.371,2.214,2.214,0,0,1-1.292-.313,1.319,1.319,0,0,1,.245-2.185,3.918,3.918,0,0,1,1.6-.228c.447,0,1.046.025,1.544.059v-.076c0-.666-.439-.886-1.638-.886-.464,0-1.03.025-1.57.076v-.861c.6-.05,1.275-.084,1.832-.084a3.608,3.608,0,0,1,1.983.4,1.573,1.573,0,0,1,.582,1.46v2.524Z" fill="#939598"/>
    <path id="path2432" d="M720.19,99.289V96.934c0-.776-.4-1.054-1.106-1.054a8.045,8.045,0,0,0-1.738.27v3.139h-1.19V95.026h.971l.042.27a9.862,9.862,0,0,1,2.279-.388,2.1,2.1,0,0,1,1.46.439,1.654,1.654,0,0,1,.464,1.334v2.608Z" fill="#939598"/>
    <path id="path2436" d="M724.734,99.407a2.411,2.411,0,0,1-1.587-.447,2.2,2.2,0,0,1-.675-1.807,2.074,2.074,0,0,1,.869-1.822,3.378,3.378,0,0,1,1.874-.422c.49,0,.971.034,1.5.084V95.9c-.431-.041-.945-.076-1.359-.076-1.131,0-1.663.355-1.663,1.334,0,.92.4,1.316,1.325,1.316a10.033,10.033,0,0,0,1.79-.219v.877a10.708,10.708,0,0,1-2.076.27" fill="#939598"/>
    <path id="path2440" d="M730.325,95.8c-1.131,0-1.629.355-1.629,1.325s.49,1.385,1.629,1.385c1.122,0,1.611-.347,1.611-1.317s-.48-1.393-1.611-1.393m2.042,3.157a3.587,3.587,0,0,1-2.042.447,3.632,3.632,0,0,1-2.051-.447,2.425,2.425,0,0,1,0-3.6,4.908,4.908,0,0,1,4.093,0,1.99,1.99,0,0,1,.793,1.8,2.016,2.016,0,0,1-.793,1.807" fill="#939598"/>
    <path id="path2444" d="M740.031,99.407a3.21,3.21,0,0,1-2.076-.6,2.979,2.979,0,0,1-.9-2.414,2.83,2.83,0,0,1,1.173-2.455,4.427,4.427,0,0,1,2.447-.549c.642,0,1.3.042,2.018.1v1.038c-.616-.051-1.375-.093-1.966-.093-1.646,0-2.346.625-2.346,1.958,0,1.36.649,1.967,1.865,1.967a13.16,13.16,0,0,0,2.574-.347v1.029a14.3,14.3,0,0,1-2.785.363" fill="#939598"/>
    <path id="path2448" d="M746.313,95.668c-.988,0-1.368.355-1.444,1h2.87c-.034-.692-.439-1-1.426-1m-.178,3.739a2.752,2.752,0,0,1-1.806-.473,2.19,2.19,0,0,1-.684-1.781,2.161,2.161,0,0,1,.8-1.8,3.166,3.166,0,0,1,1.865-.447,3.289,3.289,0,0,1,1.848.43c.684.481.743,1.224.751,2.1h-4.051c.025.65.371,1.072,1.57,1.072a15.341,15.341,0,0,0,2.271-.219v.835a16.081,16.081,0,0,1-2.566.278" fill="#939598"/>
    <path id="path2452" d="M754.206,99.289V96.934c0-.776-.4-1.054-1.106-1.054a8.042,8.042,0,0,0-1.738.27v3.139h-1.19V95.026h.971l.042.27a9.862,9.862,0,0,1,2.279-.388,2.1,2.1,0,0,1,1.46.439,1.654,1.654,0,0,1,.464,1.334v2.608Z" fill="#939598"/>
    <path id="path2456" d="M758.775,99.407a1.548,1.548,0,0,1-1.384-.607,2.21,2.21,0,0,1-.313-1.291v-1.6h-.861v-.886h.861l.127-1.292h1.055v1.292h1.679v.886H758.26V97.28a2.032,2.032,0,0,0,.118.81.756.756,0,0,0,.776.4,5.407,5.407,0,0,0,.852-.084v.852a6.683,6.683,0,0,1-1.232.152" fill="#939598"/>
    <path id="path2460" d="M761.1,99.289V95.026h.971l.042.27a7.4,7.4,0,0,1,2.11-.388,1.2,1.2,0,0,1,.151.008V95.93c-.135-.008-.3-.008-.413-.008a6.67,6.67,0,0,0-1.671.219v3.147Z" fill="#939598"/>
    <path id="path2464" d="M768.7,97.5c-.5-.043-1-.067-1.536-.067-.869,0-1.174.177-1.174.573,0,.371.254.574.92.574a8.741,8.741,0,0,0,1.79-.254Zm.253,1.789-.034-.253a10.3,10.3,0,0,1-2.313.371,2.214,2.214,0,0,1-1.292-.313,1.319,1.319,0,0,1,.245-2.185,3.916,3.916,0,0,1,1.6-.228c.447,0,1.046.025,1.544.059v-.076c0-.666-.439-.886-1.638-.886-.464,0-1.03.025-1.57.076v-.861c.6-.05,1.275-.084,1.832-.084a3.607,3.607,0,0,1,1.983.4,1.572,1.572,0,0,1,.582,1.46v2.524Z" fill="#939598"/>
    <path id="path2466" d="M771.422,93.229h1.19v6.059h-1.19Z" fill="#939598"/>
  </g>
</svg>
