<svg xmlns="http://www.w3.org/2000/svg" width="23.683" height="24" viewBox="0 0 23.683 24">
  <g id="Group_123134" data-name="Group 123134" transform="translate(-29.23 -26.2)">
    <path id="Path_206480" data-name="Path 206480" d="M52.913,28.419a2.219,2.219,0,1,0-2.872,2.121V35.39a.91.91,0,0,1-.261.638V33.9a2.222,2.222,0,0,0-2.219-2.219h-.04a8.747,8.747,0,0,0-16.031,0h-.04A2.222,2.222,0,0,0,29.23,33.9V39.5a2.223,2.223,0,0,0,1.527,2.108v5.978A2.619,2.619,0,0,0,33.373,50.2H45.636a2.619,2.619,0,0,0,2.616-2.616V41.607A2.223,2.223,0,0,0,49.779,39.5V37.511a2.224,2.224,0,0,0,1.567-2.121V30.541a2.224,2.224,0,0,0,1.567-2.121Zm-13.408-.674a7.448,7.448,0,0,1,6.564,3.94H32.942A7.448,7.448,0,0,1,39.506,27.746ZM45.637,48.9H33.374a1.312,1.312,0,0,1-1.31-1.31V41.718H46.947v5.867A1.312,1.312,0,0,1,45.637,48.9Zm1.924-8.483H31.45a.915.915,0,0,1-.914-.914V33.9a.915.915,0,0,1,.914-.914h16.11a.915.915,0,0,1,.914.914V39.5A.915.915,0,0,1,47.561,40.412Zm3.133-11.079a.914.914,0,1,1,.914-.914A.915.915,0,0,1,50.694,29.333Z" fill="#fff"/>
    <path id="Path_206481" data-name="Path 206481" d="M106.341,182.05h-2.288a.653.653,0,0,0,0,1.306h1.33l-1.2,3.038a.653.653,0,1,0,1.215.478l1.548-3.93a.653.653,0,0,0-.607-.892Z" transform="translate(-70.297 -147.711)" fill="#fff"/>
    <path id="Path_206482" data-name="Path 206482" d="M194.541,182.05h-2.288a.653.653,0,0,0,0,1.306h1.329l-1.2,3.038a.653.653,0,1,0,1.215.478l1.548-3.93a.653.653,0,0,0-.607-.892Z" transform="translate(-153.891 -147.711)" fill="#fff"/>
    <path id="Path_206483" data-name="Path 206483" d="M282.731,182.05h-2.288a.653.653,0,1,0,0,1.306h1.33l-1.2,3.038a.653.653,0,1,0,1.215.478l1.548-3.93a.653.653,0,0,0-.607-.892Z" transform="translate(-237.476 -147.711)" fill="#fff"/>
    <path id="Path_206484" data-name="Path 206484" d="M147.246,402.19h-7.8a.653.653,0,1,0,0,1.306h7.8a.653.653,0,1,0,0-1.306Z" transform="translate(-103.839 -356.355)" fill="#fff"/>
    <path id="Path_206485" data-name="Path 206485" d="M159.443,351.576h5.715a.653.653,0,0,0,0-1.306h-5.715a.653.653,0,0,0,0,1.306Z" transform="translate(-122.794 -307.147)" fill="#fff"/>
  </g>
</svg>
